# xmcd
#
# Track frame offsets:
#	150
#	19544
#	41677
#	58485
#	80378
#	102403
#	122012
#	139872
#	162996
#	184458
#	199247
#	219539
#
# Disc length: 3213 seconds
#
# Revision: 0
# Processed by: cddbd v1.5.2PL0 Copyright (c) Steve Scherf et al.
# Submitted via: EZCDAudioConverter 8.0.7.1
#
DISCID=b20c8b0c
DTITLE=Emmylou Harris - Wrecking Ball (1995)
DYEAR=1995
DGENRE=Country
TTITLE0=Where Will I Be
TTITLE1=Goodbye
TTITLE2=All My Tears
TTITLE3=Wrecking Ball
TTITLE4=Goin' Back To Harlan
TTITLE5=Deeper Well
TTITLE6=Every Grain Of Sand
TTITLE7=Sweet Old World
TTITLE8=May This Be Love
TTITLE9=Orphan Girl
TTITLE10=Blackhawk
TTITLE11=Waltz Across Texas
EXTD=
EXTT0=
EXTT1=
EXTT2=
EXTT3=
EXTT4=
EXTT5=
EXTT6=
EXTT7=
EXTT8=
EXTT9=
EXTT10=
EXTT11=
PLAYORDER=
